<svg xmlns="http://www.w3.org/2000/svg" xmlns:xlink="http://www.w3.org/1999/xlink" contentStyleType="text/css" data-diagram-type="SEQUENCE" height="711px" preserveAspectRatio="none" style="width:977px;height:711px;background:#FEFEFE;" version="1.1" viewBox="0 0 977 711" width="977px" zoomAndPan="magnify"><defs/><g><rect fill="#FEFEFE" height="711" style="stroke:none;stroke-width:1;" width="977" x="0" y="0"/><g><title>git commit</title><rect fill="#FFFFFF" height="256.6777" style="stroke:#000000;stroke-width:1;" width="10" x="184.7104" y="111.2617"/></g><g><title>post-commit hook</title><rect fill="#FFFFFF" height="199.416" style="stroke:#000000;stroke-width:1;" width="10" x="300.1702" y="139.8926"/></g><g><title>You</title><rect fill="#000000" fill-opacity="0.00000" height="539.6172" width="8" x="20" y="80.6309"/><line style="stroke:#000000;stroke-width:1;" x1="24" x2="24" y1="80.6309" y2="620.248"/></g><g><title>git commit</title><rect fill="#000000" fill-opacity="0.00000" height="539.6172" width="8" x="185.7104" y="80.6309"/><line style="stroke:#000000;stroke-width:1;" x1="189.3357" x2="189.3357" y1="80.6309" y2="620.248"/></g><g><title>post-commit hook</title><rect fill="#000000" fill-opacity="0.00000" height="539.6172" width="8" x="301.1702" y="80.6309"/><line style="stroke:#000000;stroke-width:1;" x1="305.0852" x2="305.0852" y1="80.6309" y2="620.248"/></g><g><title>yq</title><rect fill="#000000" fill-opacity="0.00000" height="539.6172" width="8" x="443.8171" y="80.6309"/><line style="stroke:#000000;stroke-width:1;" x1="446.917" x2="446.917" y1="80.6309" y2="620.248"/></g><g><title>local.yaml</title><rect fill="#000000" fill-opacity="0.00000" height="539.6172" width="8" x="539.4246" y="80.6309"/><line style="stroke:#000000;stroke-width:1;" x1="542.4775" x2="542.4775" y1="80.6309" y2="620.248"/></g><g><title>background</title><rect fill="#000000" fill-opacity="0.00000" height="539.6172" width="8" x="622.5151" y="80.6309"/><line style="stroke:#000000;stroke-width:1;" x1="626.3716" x2="626.3716" y1="80.6309" y2="620.248"/></g><g><title>graph.json</title><rect fill="#000000" fill-opacity="0.00000" height="539.6172" width="8" x="805.6509" y="80.6309"/><line style="stroke:#000000;stroke-width:1;" x1="809.4314" x2="809.4314" y1="80.6309" y2="620.248"/></g><g class="participant participant-head" data-participant="user"><text fill="#000000" font-family="Segoe UI" font-size="11" lengthAdjust="spacing" textLength="18.7505" x="11.6248" y="77.8701">You</text><ellipse cx="24" cy="14" fill="#FFFFFF" rx="8" ry="8" style="stroke:#000000;stroke-width:1;"/><path d="M24,22 L24,49 M11,30 L37,30 M24,49 L11,64 M24,49 L37,64" fill="none" style="stroke:#000000;stroke-width:1;"/></g><g class="participant participant-tail" data-participant="user"><text fill="#000000" font-family="Segoe UI" font-size="11" lengthAdjust="spacing" textLength="18.7505" x="11.6248" y="631.1182">You</text><ellipse cx="24" cy="642.8789" fill="#FFFFFF" rx="8" ry="8" style="stroke:#000000;stroke-width:1;"/><path d="M24,650.8789 L24,677.8789 M11,658.8789 L37,658.8789 M24,677.8789 L11,692.8789 M24,677.8789 L37,692.8789" fill="none" style="stroke:#000000;stroke-width:1;"/></g><g class="participant participant-head" data-participant="git"><rect fill="#FFFFFF" height="28.6309" rx="2.5" ry="2.5" style="stroke:#000000;stroke-width:1;" width="66.7495" x="156.3357" y="51"/><text fill="#000000" font-family="Segoe UI" font-size="11" lengthAdjust="spacing" textLength="52.7495" x="163.3357" y="69.8701">git commit</text></g><g class="participant participant-tail" data-participant="git"><rect fill="#FFFFFF" height="28.6309" rx="2.5" ry="2.5" style="stroke:#000000;stroke-width:1;" width="66.7495" x="156.3357" y="619.248"/><text fill="#000000" font-family="Segoe UI" font-size="11" lengthAdjust="spacing" textLength="52.7495" x="163.3357" y="638.1182">git commit</text></g><g class="participant participant-head" data-participant="hook"><rect fill="#FFFFFF" height="28.6309" rx="2.5" ry="2.5" style="stroke:#000000;stroke-width:1;" width="104.1699" x="253.0852" y="51"/><text fill="#000000" font-family="Segoe UI" font-size="11" lengthAdjust="spacing" textLength="90.1699" x="260.0852" y="69.8701">post-commit hook</text></g><g class="participant participant-tail" data-participant="hook"><rect fill="#FFFFFF" height="28.6309" rx="2.5" ry="2.5" style="stroke:#000000;stroke-width:1;" width="104.1699" x="253.0852" y="619.248"/><text fill="#000000" font-family="Segoe UI" font-size="11" lengthAdjust="spacing" textLength="90.1699" x="260.0852" y="638.1182">post-commit hook</text></g><g class="participant participant-head" data-participant="yq"><rect fill="#FFFFFF" height="28.6309" rx="2.5" ry="2.5" style="stroke:#000000;stroke-width:1;" width="25.8003" x="434.917" y="51"/><text fill="#000000" font-family="Segoe UI" font-size="11" lengthAdjust="spacing" textLength="11.8003" x="441.917" y="69.8701">yq</text></g><g class="participant participant-tail" data-participant="yq"><rect fill="#FFFFFF" height="28.6309" rx="2.5" ry="2.5" style="stroke:#000000;stroke-width:1;" width="25.8003" x="434.917" y="619.248"/><text fill="#000000" font-family="Segoe UI" font-size="11" lengthAdjust="spacing" textLength="11.8003" x="441.917" y="638.1182">yq</text></g><g class="participant participant-head" data-participant="cfg"><rect fill="#FFFFFF" height="28.6309" rx="2.5" ry="2.5" style="stroke:#000000;stroke-width:1;" width="61.894" x="512.4775" y="51"/><text fill="#000000" font-family="Segoe UI" font-size="11" lengthAdjust="spacing" textLength="47.894" x="519.4775" y="69.8701">local.yaml</text></g><g class="participant participant-tail" data-participant="cfg"><rect fill="#FFFFFF" height="28.6309" rx="2.5" ry="2.5" style="stroke:#000000;stroke-width:1;" width="61.894" x="512.4775" y="619.248"/><text fill="#000000" font-family="Segoe UI" font-size="11" lengthAdjust="spacing" textLength="47.894" x="519.4775" y="638.1182">local.yaml</text></g><g class="participant participant-head" data-participant="bg"><text fill="#000000" font-family="Segoe UI" font-size="11" lengthAdjust="spacing" textLength="58.2871" x="594.3716" y="63.2393">background</text><text fill="#000000" font-family="Segoe UI" font-size="11" lengthAdjust="spacing" textLength="34.0742" x="606.478" y="77.8701">rebuild</text><path d="M608.5151,15.3691 C608.5151,5.3691 626.5151,5.3691 626.5151,5.3691 C626.5151,5.3691 644.5151,5.3691 644.5151,15.3691 L644.5151,41.3691 C644.5151,51.3691 626.5151,51.3691 626.5151,51.3691 C626.5151,51.3691 608.5151,51.3691 608.5151,41.3691 L608.5151,15.3691" fill="#FFFFFF" style="stroke:#000000;stroke-width:1.5;"/><path d="M608.5151,15.3691 C608.5151,25.3691 626.5151,25.3691 626.5151,25.3691 C626.5151,25.3691 644.5151,25.3691 644.5151,15.3691" fill="none" style="stroke:#000000;stroke-width:1.5;"/></g><g class="participant participant-tail" data-participant="bg"><text fill="#000000" font-family="Segoe UI" font-size="11" lengthAdjust="spacing" textLength="58.2871" x="594.3716" y="631.1182">background</text><text fill="#000000" font-family="Segoe UI" font-size="11" lengthAdjust="spacing" textLength="34.0742" x="606.478" y="645.749">rebuild</text><path d="M608.5151,658.5098 C608.5151,648.5098 626.5151,648.5098 626.5151,648.5098 C626.5151,648.5098 644.5151,648.5098 644.5151,658.5098 L644.5151,684.5098 C644.5151,694.5098 626.5151,694.5098 626.5151,694.5098 C626.5151,694.5098 608.5151,694.5098 608.5151,684.5098 L608.5151,658.5098" fill="#FFFFFF" style="stroke:#000000;stroke-width:1.5;"/><path d="M608.5151,658.5098 C608.5151,668.5098 626.5151,668.5098 626.5151,668.5098 C626.5151,668.5098 644.5151,668.5098 644.5151,658.5098" fill="none" style="stroke:#000000;stroke-width:1.5;"/></g><g class="participant participant-head" data-participant="graph"><text fill="#000000" font-family="Segoe UI" font-size="11" lengthAdjust="spacing" textLength="50.9771" x="781.1624" y="63.2393">graph.json</text><text fill="#000000" font-family="Segoe UI" font-size="11" lengthAdjust="spacing" textLength="62.439" x="775.4314" y="77.8701">(via junction)</text><path d="M791.6509,15.3691 C791.6509,5.3691 809.6509,5.3691 809.6509,5.3691 C809.6509,5.3691 827.6509,5.3691 827.6509,15.3691 L827.6509,41.3691 C827.6509,51.3691 809.6509,51.3691 809.6509,51.3691 C809.6509,51.3691 791.6509,51.3691 791.6509,41.3691 L791.6509,15.3691" fill="#FFFFFF" style="stroke:#000000;stroke-width:1.5;"/><path d="M791.6509,15.3691 C791.6509,25.3691 809.6509,25.3691 809.6509,25.3691 C809.6509,25.3691 827.6509,25.3691 827.6509,15.3691" fill="none" style="stroke:#000000;stroke-width:1.5;"/></g><g class="participant participant-tail" data-participant="graph"><text fill="#000000" font-family="Segoe UI" font-size="11" lengthAdjust="spacing" textLength="50.9771" x="781.1624" y="631.1182">graph.json</text><text fill="#000000" font-family="Segoe UI" font-size="11" lengthAdjust="spacing" textLength="62.439" x="775.4314" y="645.749">(via junction)</text><path d="M791.6509,658.5098 C791.6509,648.5098 809.6509,648.5098 809.6509,648.5098 C809.6509,648.5098 827.6509,648.5098 827.6509,658.5098 L827.6509,684.5098 C827.6509,694.5098 809.6509,694.5098 809.6509,694.5098 C809.6509,694.5098 791.6509,694.5098 791.6509,684.5098 L791.6509,658.5098" fill="#FFFFFF" style="stroke:#000000;stroke-width:1.5;"/><path d="M791.6509,658.5098 C791.6509,668.5098 809.6509,668.5098 809.6509,668.5098 C809.6509,668.5098 827.6509,668.5098 827.6509,658.5098" fill="none" style="stroke:#000000;stroke-width:1.5;"/></g><g><title>git commit</title><rect fill="#FFFFFF" height="256.6777" style="stroke:#000000;stroke-width:1;" width="10" x="184.7104" y="111.2617"/></g><g><title>post-commit hook</title><rect fill="#FFFFFF" height="199.416" style="stroke:#000000;stroke-width:1;" width="10" x="300.1702" y="139.8926"/></g><g class="message" data-participant-1="user" data-participant-2="git"><polygon fill="#000000" points="172.7104,107.2617,182.7104,111.2617,172.7104,115.2617,176.7104,111.2617" style="stroke:#000000;stroke-width:1;"/><line style="stroke:#000000;stroke-width:1;" x1="24" x2="178.7104" y1="111.2617" y2="111.2617"/><text fill="#000000" font-family="Segoe UI" font-size="11" lengthAdjust="spacing" textLength="79.9058" x="31" y="106.501">commit changes</text></g><g class="message" data-participant-1="git" data-participant-2="hook"><polygon fill="#000000" points="288.1702,135.8926,298.1702,139.8926,288.1702,143.8926,292.1702,139.8926" style="stroke:#000000;stroke-width:1;"/><line style="stroke:#000000;stroke-width:1;" x1="194.7104" x2="294.1702" y1="139.8926" y2="139.8926"/><text fill="#000000" font-family="Segoe UI" font-size="11" lengthAdjust="spacing" textLength="20.3511" x="201.7104" y="135.1318">fires</text></g><g class="message" data-participant-1="hook" data-participant-2="yq"><polygon fill="#000000" points="435.8171,164.5234,445.8171,168.5234,435.8171,172.5234,439.8171,168.5234" style="stroke:#000000;stroke-width:1;"/><line style="stroke:#000000;stroke-width:1;" x1="310.1702" x2="441.8171" y1="168.5234" y2="168.5234"/><text fill="#000000" font-family="Segoe UI" font-size="11" lengthAdjust="spacing" textLength="113.647" x="317.1702" y="163.7627">read graphify.scan_root</text></g><g class="message" data-participant-1="yq" data-participant-2="cfg"><polygon fill="#000000" points="531.4246,193.1543,541.4246,197.1543,531.4246,201.1543,535.4246,197.1543" style="stroke:#000000;stroke-width:1;"/><line style="stroke:#000000;stroke-width:1;" x1="447.8171" x2="537.4246" y1="197.1543" y2="197.1543"/><text fill="#000000" font-family="Segoe UI" font-size="11" lengthAdjust="spacing" textLength="27.6021" x="454.8171" y="192.3936">query</text></g><g class="message" data-participant-1="cfg" data-participant-2="yq"><polygon fill="#000000" points="458.8171,221.7852,448.8171,225.7852,458.8171,229.7852,454.8171,225.7852" style="stroke:#000000;stroke-width:1;"/><line style="stroke:#000000;stroke-width:1;stroke-dasharray:2.0,2.0;" x1="452.8171" x2="542.4246" y1="225.7852" y2="225.7852"/><text fill="#000000" font-family="Segoe UI" font-size="11" lengthAdjust="spacing" textLength="71.6074" x="464.8171" y="221.0244">scan_root path</text></g><g class="message" data-participant-1="yq" data-participant-2="hook"><polygon fill="#000000" points="321.1702,250.416,311.1702,254.416,321.1702,258.416,317.1702,254.416" style="stroke:#000000;stroke-width:1;"/><line style="stroke:#000000;stroke-width:1;stroke-dasharray:2.0,2.0;" x1="315.1702" x2="446.8171" y1="254.416" y2="254.416"/><text fill="#000000" font-family="Segoe UI" font-size="11" lengthAdjust="spacing" textLength="22.0161" x="327.1702" y="249.6553">path</text></g><g class="message" data-participant-1="hook" data-participant-2="hook"><line style="stroke:#000000;stroke-width:1;" x1="310.1702" x2="352.1702" y1="297.6777" y2="297.6777"/><line style="stroke:#000000;stroke-width:1;" x1="352.1702" x2="352.1702" y1="297.6777" y2="310.6777"/><line style="stroke:#000000;stroke-width:1;" x1="311.1702" x2="352.1702" y1="310.6777" y2="310.6777"/><polygon fill="#000000" points="321.1702,306.6777,311.1702,310.6777,321.1702,314.6777,317.1702,310.6777" style="stroke:#000000;stroke-width:1;"/><text fill="#000000" font-family="Segoe UI" font-size="11" lengthAdjust="spacing" textLength="101.7446" x="317.1702" y="278.2861">prefix changed paths</text><text fill="#000000" font-family="Segoe UI" font-size="11" lengthAdjust="spacing" textLength="76.1299" x="317.1702" y="292.917">with repo name</text></g><g class="message" data-participant-1="hook" data-participant-2="bg"><polygon fill="#000000" points="614.5151,335.3086,624.5151,339.3086,614.5151,343.3086,618.5151,339.3086" style="stroke:#000000;stroke-width:1;"/><line style="stroke:#000000;stroke-width:1;" x1="305.1702" x2="620.5151" y1="339.3086" y2="339.3086"/><text fill="#000000" font-family="Segoe UI" font-size="11" lengthAdjust="spacing" textLength="133.0474" x="312.1702" y="334.5479">nohup detached invocation</text></g><g class="message" data-participant-1="git" data-participant-2="user"><polygon fill="#000000" points="35,363.9395,25,367.9395,35,371.9395,31,367.9395" style="stroke:#000000;stroke-width:1;"/><line style="stroke:#000000;stroke-width:1;stroke-dasharray:2.0,2.0;" x1="29" x2="188.7104" y1="367.9395" y2="367.9395"/><text fill="#000000" font-family="Segoe UI" font-size="11" lengthAdjust="spacing" textLength="136.7104" x="41" y="363.1787">commit returns immediately</text></g><g class="message" data-participant-1="bg" data-participant-2="bg"><line style="stroke:#000000;stroke-width:1;" x1="626.5151" x2="668.5151" y1="396.5703" y2="396.5703"/><line style="stroke:#000000;stroke-width:1;" x1="668.5151" x2="668.5151" y1="396.5703" y2="409.5703"/><line style="stroke:#000000;stroke-width:1;" x1="627.5151" x2="668.5151" y1="409.5703" y2="409.5703"/><polygon fill="#000000" points="637.5151,405.5703,627.5151,409.5703,637.5151,413.5703,633.5151,409.5703" style="stroke:#000000;stroke-width:1;"/><text fill="#000000" font-family="Segoe UI" font-size="11" lengthAdjust="spacing" textLength="77.4888" x="633.5151" y="391.8096">chdir(scan_root)</text></g><g class="message" data-participant-1="bg" data-participant-2="bg"><line style="stroke:#000000;stroke-width:1;" x1="626.5151" x2="668.5151" y1="482.0938" y2="482.0938"/><line style="stroke:#000000;stroke-width:1;" x1="668.5151" x2="668.5151" y1="482.0938" y2="495.0938"/><line style="stroke:#000000;stroke-width:1;" x1="627.5151" x2="668.5151" y1="495.0938" y2="495.0938"/><polygon fill="#000000" points="637.5151,491.0938,627.5151,495.0938,637.5151,499.0938,633.5151,495.0938" style="stroke:#000000;stroke-width:1;"/><text fill="#000000" font-family="Segoe UI" font-size="11" lengthAdjust="spacing" textLength="70.2808" x="633.5151" y="433.4404">_rebuild_code(</text><text fill="#000000" font-family="Segoe UI" font-size="11" lengthAdjust="spacing" textLength="13.3955" x="639.5415" y="448.0713">".",</text><text fill="#000000" font-family="Segoe UI" font-size="11" lengthAdjust="spacing" textLength="163.1094" x="639.5415" y="462.7021">changed_paths=workspace_paths</text><text fill="#000000" font-family="Segoe UI" font-size="11" lengthAdjust="spacing" textLength="3.3193" x="633.5151" y="477.333">)</text></g><g class="message" data-participant-1="bg" data-participant-2="graph"><polygon fill="#000000" points="797.6509,519.7246,807.6509,523.7246,797.6509,527.7246,801.6509,523.7246" style="stroke:#000000;stroke-width:1;"/><line style="stroke:#000000;stroke-width:1;" x1="626.5151" x2="803.6509" y1="523.7246" y2="523.7246"/><text fill="#000000" font-family="Segoe UI" font-size="11" lengthAdjust="spacing" textLength="91.9048" x="633.5151" y="518.9639">write incrementally</text></g><path d="M814,536.7246 L814,604.7246 L970,604.7246 L970,546.7246 L960,536.7246 L814,536.7246" fill="#FFFFFF" style="stroke:#000000;stroke-width:1;"/><path d="M960,536.7246 L960,546.7246 L970,546.7246 L960,536.7246" fill="#FFFFFF" style="stroke:#000000;stroke-width:1;"/><text fill="#000000" font-family="Segoe UI" font-size="11" lengthAdjust="spacing" textLength="42.9043" x="820" y="553.5947">Junction:</text><text fill="#000000" font-family="Segoe UI" font-size="11" lengthAdjust="spacing" textLength="111.6812" x="820" y="568.2256">scan_root/graphify-out</text><text fill="#000000" font-family="Segoe UI" font-size="11" lengthAdjust="spacing" textLength="127.9556" x="826.0264" y="582.8564">&#8594; output_dir/graphify-out</text><text fill="#000000" font-family="Segoe UI" font-size="11" lengthAdjust="spacing" textLength="135.9478" x="820" y="597.4873">So writes land at output_dir.</text><!--SRC=[RPFFZjCm4CRlVeeXNBeIBTfh9BWWLjezSAau85MA9hQJU9juKlzf2G_00_28F0bZDmqfGf4QT-Ot_kQRKTw4JWyQnXwD5Vvex8WE1wXH7bj7qQfFr9E3jq-VqxCYb6umzk69RFY2V4Enrorf-FfS_1_QcnyQ7X-5G1dumk8RnGBGG_JQ2S5uCDACQ0CKhGaWQHXCo0J_lS-FvCFs2a17TCnKEjnZqoadfjDzk2U9_Mx2eSzfsRH2OS0QFPluw_jWdQwZwLMcwZNKEXoxtQidUx2Riq5uZLO6G_RXsczA2v6CmVPZQh-SxO3iqBRQfncOCmQTlIMxp2K39JJ6hVFPLVf9n7GgmMbKLmNJJ3ilqLQEA8Zfb0WsKy8fQZS9Fi9sBbem635qcLq4S-IcC8USRiptkLcL2N-m5nCwbXy9BEzxAQbPqL8NHrvsGDbnWR5ddd4QY53wtahsobLfECjKd0xHMGzc6BGopFRJkZ3Dg6vlMh9JncqMHm-hL3Llh9AazEPW0OfTyIwzPojLjlBXGkxeHvIwcgtTBibpBU7Y3CiQAnr_6ZPWp_rOuf0pRHU0cdd502_puai-BoszlwrdIp5m0k3tpr_0vp66Yfl_Dx-dgwA77gq232js9pI7alWV]--></g></svg>